<svg xmlns="http://www.w3.org/2000/svg" viewBox="0 0 535.74 650.49"><defs><style>.cls-1,.cls-2{fill:#565757;}.cls-2{stroke:#fff;stroke-miterlimit:10;stroke-width:31px;}.cls-3{fill:#feae39;}.cls-4{fill:#fe971e;}</style></defs><title>splitbill</title><g id="logo"><path class="cls-1" d="M1058.46,569.93c-8,10.45-17.72,14-28.58,11.78-22.24-4.58-44.29-10.07-66.36-15.43C899.67,550.79,835.86,535.13,772,519.73c-5.11-1.23-7.8-3.69-9.71-8.5-9.55-24.11-14-49.08-14-76.79Z" transform="translate(-671.06 -245.58)"/><path class="cls-2" d="M761.34,508.22a175.93,175.93,0,0,1-11.74-48c-.87-8.4-.75-16.9-1.35-25.33-.34-4.86,1.78-7.58,5.82-10.12q85.68-53.88,171.16-108c12.61-8,25.14-16.08,37.85-23.89,10-6.14,20.56-8.37,31.69-2.92a35.9,35.9,0,0,1,4,2.86Z" transform="translate(-671.06 -245.58)"/><path class="cls-3" d="M1123.9,376.81q-92.28,0-184.56.05c-9.16,0-15.17-4.31-18.86-12.26-3.34-7.18.34-13.6,8.21-14.49a52.35,52.35,0,0,1,6-.06l177.88-.09A104.18,104.18,0,0,1,1123.9,376.81Z" transform="translate(-671.06 -245.58)"/><path class="cls-3" d="M1097.48,325.8q-85.59.07-171.17.12c-7.84,0-16-7.25-17.67-14.92-1.16-5.54,2.88-10.88,9-11.7a39.58,39.58,0,0,1,5.34-.09q71.22,0,142.43,0c2.55,0,5.39,1,7.62-1.24A129.5,129.5,0,0,1,1097.48,325.8Z" transform="translate(-671.06 -245.58)"/><path class="cls-3" d="M1130.64,475.83c-52.49,0-105-.23-157.48.19-10.12.08-17.68-2.78-23.32-11,5.08-6.37,12.66-8.32,19.73-11.14,5.08-2,10.19-3.95,15.29-5.92,1.65,1.66,3.76,1.07,5.7,1.07q71.81,0,143.62,0C1133.73,458,1133.4,467.1,1130.64,475.83Z" transform="translate(-671.06 -245.58)"/><path class="cls-3" d="M945.8,424.19c-2.57-4.09-7.6-5.94-9.36-10.89-3.06-8.61.74-14.67,9.83-15.07,1.56-.06,3.12,0,4.68,0l179.08,0a101.22,101.22,0,0,1,3.71,26.87c-26.2,0-52.4,0-78.6-.13-2.53,0-5.39,1.05-7.54-1.36l25.93-11.26-.23-1.23q-18,1.88-36,3.74Z" transform="translate(-671.06 -245.58)"/><path class="cls-3" d="M1113.24,526.71c-2.18-2.36-5-1.33-7.58-1.33q-60.51-.11-121,0c-8.86,0-14.75-4.2-18.47-11.81s.58-14.57,9.07-14.94c5.78-.24,11.59-.05,17.38-.05l132.39,0A119.64,119.64,0,0,1,1113.24,526.71Z" transform="translate(-671.06 -245.58)"/><path class="cls-3" d="M1045.15,276.36l-131.62.09c-15.47,0-23.39-10-19.59-24.68,4.72-1.79,9.68-2.51,14.64-3.19a385.91,385.91,0,0,0,65.39,0C999.64,252.85,1023.52,261.74,1045.15,276.36Z" transform="translate(-671.06 -245.58)"/><path class="cls-3" d="M1075.75,577.52c-2-2.21-4.59-1.3-6.92-1.31q-37.11-.09-74.22,0c-7.72,0-13.14-3.7-16.83-10.08-5.27-9.09-1-16.61,9.56-16.67,18.49-.11,37,0,55.49,0l56.83-.06A134,134,0,0,1,1075.75,577.52Z" transform="translate(-671.06 -245.58)"/><path class="cls-3" d="M999.48,623c-2.1-3.84-6.38-5.95-7.49-10.73-1.8-7.75,2-13.3,10-13.34,15.73-.06,31.47,0,47.21.09A152.46,152.46,0,0,1,999.48,623Z" transform="translate(-671.06 -245.58)"/><path class="cls-4" d="M1123.9,376.81c3.26,6.78,4.74,14.06,6.13,21.38l-179.08,0c-1.56,0-3.12-.05-4.68,0-9.09.4-12.89,6.46-9.83,15.07,1.76,4.95,6.79,6.8,9.36,10.89-9.26,1.1-18.53,2.1-27.78,3.34-3.37.45-4.64-.89-5.52-4q-22.56-79.12-45.36-158.17c-1-3.49-.23-5.12,3.28-6.32,7.77-2.65,15.38-5.78,23.52-7.26-3.8,14.7,4.12,24.69,19.59,24.68l131.62-.09A133.27,133.27,0,0,1,1073,297.92c-2.23,2.26-5.07,1.24-7.62,1.24q-71.22.1-142.43,0a39.58,39.58,0,0,0-5.34.09c-6.12.82-10.16,6.16-9,11.7,1.62,7.67,9.83,14.91,17.67,14.92q85.59,0,171.17-.12c6.26,7.29,11,15.53,15.1,24.16l-177.88.09a52.35,52.35,0,0,0-6,.06c-7.87.89-11.55,7.31-8.21,14.49,3.69,7.95,9.7,12.27,18.86,12.26Q1031.62,376.73,1123.9,376.81Z" transform="translate(-671.06 -245.58)"/><path class="cls-4" d="M1075.75,577.52A126.17,126.17,0,0,1,1049.2,599c-15.74,0-31.48-.15-47.21-.09-8,0-11.8,5.59-10,13.34,1.11,4.78,5.39,6.89,7.49,10.73-7.74,3.58-16.16,4.57-24.35,6.48-4.55,1.06-4.31-2.75-5-5.25Q956,575.31,942,526.31c-1.89-6.62-3.51-13.32-5.61-19.86-5.47-17.1.71-30.29,13.44-41.42,5.64,8.21,13.2,11.07,23.32,11,52.49-.42,105-.19,157.48-.19-.6,7.88-3,15.32-5.63,22.7l-132.39,0c-5.79,0-11.6-.19-17.38.05-8.49.37-12.75,7.41-9.07,14.94s9.61,11.83,18.47,11.81q60.51-.15,121,0c2.55,0,5.4-1,7.58,1.33a104.63,104.63,0,0,1-13.58,22.64l-56.83.06c-18.5,0-37-.07-55.49,0-10.52.06-14.83,7.58-9.56,16.67,3.69,6.38,9.11,10.1,16.83,10.08q37.11-.11,74.22,0C1071.16,576.22,1073.79,575.31,1075.75,577.52Z" transform="translate(-671.06 -245.58)"/><path class="cls-4" d="M1047.6,423.57c2.15,2.41,5,1.35,7.54,1.36,26.2.11,52.4.1,78.6.13,1.44,8,1,15.95.44,23.94q-71.81,0-143.62,0c-1.94,0-4,.59-5.7-1.07C1005.7,439.66,1026.31,430.73,1047.6,423.57Z" transform="translate(-671.06 -245.58)"/><path class="cls-4" d="M974,248.58a385.91,385.91,0,0,1-65.39,0A179.44,179.44,0,0,1,974,248.58Z" transform="translate(-671.06 -245.58)"/><path class="cls-1" d="M763.34,506.22a175.93,175.93,0,0,1-11.74-48c-.87-8.4-.75-16.9-1.35-25.33-.34-4.86,1.78-7.58,5.82-10.12q85.68-53.88,171.16-108c12.61-8,25.14-16.08,37.85-23.89,10-6.14,20.56-8.37,31.69-2.92a35.9,35.9,0,0,1,4,2.86Z" transform="translate(-671.06 -245.58)"/></g><g id="text"><path class="cls-1" d="M706,862.07q-23.18,2.43-34.93-4.8.16-2.47.49-5.64l.74-6q.66-5.91.83-7.36a10,10,0,0,1,.24-1.59c.06-.09.5.3,1.32,1.18a17.26,17.26,0,0,0,4.68,3,39,39,0,0,0,8,2.78,59.84,59.84,0,0,0,20.38,1.22q14.22-1.49,14.22-10.94a4.27,4.27,0,0,0-2.71-4.24q-4.86-2-14.26-2.24a60.21,60.21,0,0,1-15.41-2.12,28.76,28.76,0,0,1-9.79-4.89q-7-5.76-7-16.28A26.54,26.54,0,0,1,682.65,783q9.78-8.26,27-10.08,17.1-1.8,29.18,6.63c-.38,1.47-.79,2.88-1.23,4.24q-1.89,5.63-2.79,8.1l-1.9,5c-.11.45-.19.68-.24.68s-.55-.51-1.32-1.58q-5.17-5.46-16.11-6.2a35.44,35.44,0,0,0-6.9.07q-15,1.58-15,10.61a4.55,4.55,0,0,0,3.12,4.44q5.84,2.52,16,2.92t15.41,2.37a23.25,23.25,0,0,1,8.47,5.15q5.91,5.79,5.92,16.39,0,11.6-9.29,19.8Q723.34,860.25,706,862.07Z" transform="translate(-671.06 -245.58)"/><path class="cls-1" d="M780.91,851.24V875.4a76.86,76.86,0,0,0,.33,9.17l-20.46,2.15V769.18l20.13-2.11v5.34q9.95-8,19.07-9a45.91,45.91,0,0,1,16.2.85,29.12,29.12,0,0,1,12.41,6.58q11.74,10.35,11.75,31.81a52.46,52.46,0,0,1-6.66,26.1A49,49,0,0,1,818,845.53a42,42,0,0,1-19.23,7Q788.4,853.65,780.91,851.24Zm0-20.72q6.26,4.61,16.2,3.56,16.27-1.71,21-17.91a40.78,40.78,0,0,0,1.64-11.64,32.27,32.27,0,0,0-1.15-9.66,20.73,20.73,0,0,0-3-6,16.89,16.89,0,0,0-4.15-4,21.11,21.11,0,0,0-4.68-2.34,19.75,19.75,0,0,0-8.63-1,25.18,25.18,0,0,0-9.21,3,28,28,0,0,0-8.06,6.35Z" transform="translate(-671.06 -245.58)"/><path class="cls-1" d="M874.82,833.89a76.86,76.86,0,0,0,.33,9.17l-20.88,2.19V722.78l20.55-2.16Z" transform="translate(-671.06 -245.58)"/><path class="cls-1" d="M914.05,829.66a76.86,76.86,0,0,0,.33,9.17L893.5,841V755.13L914.05,753Z" transform="translate(-671.06 -245.58)"/><path class="cls-1" d="M972.52,814.53q10.61-1.11,14.55-7l.65-.07.25,19.05q-4,4.46-15,6.91a57.09,57.09,0,0,1-7.35,1.19,30.44,30.44,0,0,1-9.54-.64,18.46,18.46,0,0,1-8.75-4.43q-7.49-6.86-7.48-23.13V769.05l-12.41,1.31c-.06-1.58-.09-3.2-.09-4.84V752.86a4.33,4.33,0,0,1,.09-1.41l12.41-1.3V726.72L960,724.61V748l22.6-2.37v18.9L960,766.94v33.53q0,12.91,7.15,14A19,19,0,0,0,972.52,814.53Z" transform="translate(-671.06 -245.58)"/><path class="cls-4" d="M1035.61,785a44.13,44.13,0,0,1,18.82-6.75q9.61-1,16.57,1.26a31.51,31.51,0,0,1,12.2,7.31Q1094.63,798,1094.63,817q0,20.81-12.42,34.84a44.44,44.44,0,0,1-29.67,15.37q-15.61,1.65-25.72-5.43-11.35-8-11.35-24.21v-90l20.14-2.12Zm0,50.22q0,14.46,18,12.57,8.79-.91,14.8-9.28a34.06,34.06,0,0,0,6.08-20.28q0-11.83-6.41-17.17-5.76-4.72-15.45-3.72-5.85.62-12.91,5.31a35.32,35.32,0,0,0-4.11,3.14Z" transform="translate(-671.06 -245.58)"/><path class="cls-4" d="M1129.76,848.62a76.86,76.86,0,0,0,.33,9.17L1109.21,860V774.09l20.55-2.16Z" transform="translate(-671.06 -245.58)"/><path class="cls-4" d="M1167.16,844.37a76.86,76.86,0,0,0,.33,9.17l-20.88,2.2V733.26l20.55-2.16Z" transform="translate(-671.06 -245.58)"/><path class="cls-4" d="M1206.47,840.13a76.75,76.75,0,0,0,.33,9.17l-20.87,2.2V729l20.54-2.16Z" transform="translate(-671.06 -245.58)"/></g><g id="Layer_3" data-name="Layer 3"><path class="cls-4" d="M1026,732.05h0a8.83,8.83,0,0,1-10-8.95v-15a11.38,11.38,0,0,1,10-11.05h0a8.84,8.84,0,0,1,10,9v15A11.38,11.38,0,0,1,1026,732.05Z" transform="translate(-671.06 -245.58)"/><ellipse class="cls-4" cx="1026.5" cy="676" rx="10.87" ry="9.66" transform="translate(-873.48 451.6) rotate(-34.35)"/><ellipse class="cls-4" cx="1026.5" cy="886" rx="10.87" ry="9.66" transform="translate(-991.98 488.23) rotate(-34.35)"/></g></svg>